{"title":"Unstoppable.2010.CAM.XviD..vice","uid":5960525,"size":714733432,"categoryP":"video","categoryS":"movies","magnet":"?xt=urn:btih:035d029f62db95b461b1e23bd5025fcf3941751f&amp;dn=Unstoppable.2010.CAM.XviD..vice&amp;tr=udp%3A%2F%2Ftracker.openbittorrent.com%3A80&amp;tr=udp%3A%2F%2Fopen.demonii.com%3A1337&amp;tr=udp%3A%2F%2Ftracker.coppersurfer.tk%3A6969&amp;tr=udp%3A%2F%2Fexodus.desync.com%3A6969","seeders":1,"leechers":0,"uploader":"vicerock","files":-1,"time":1289936912,"description":"Format : AVI\nFormat/Info : Audio Video Interleave\nFile size : 674 MiB\nDuration : 1h 32mn\nOverall bit rate : 1 019 Kbps\nWriting application : VirtualDubMod 1.5.10.3 | www.virtualdub-fr.org || (build 2550/release)\nWriting library : VirtualDubMod build 2550/release\n\nVideo\nID : 0\nFormat : MPEG-4 Visual\nFormat profile : AdvancedSimple@L5\nFormat settings, BVOP : Yes\nFormat settings, QPel : No\nFormat settings, GMC : No warppoints\nFormat settings, Matrix : Default (H.263)\nMuxing mode : Packed bitstream\nCodec ID : XVID\nCodec ID/Hint : XviD\nDuration : 1h 32mn\nBit rate : 882 Kbps\nWidth : 640 pixels\nHeight : 272 pixels\nDisplay aspect ratio : 16:9\nFrame rate : 25.000 fps\nResolution : 24 bits\nColorimetry : 4:2:0\nScan type : Progressive\nBits/(Pixel*Frame) : 0.203\nStream size : 583 MiB (86%)\nWriting library : XviD 1.1.2 (UTC 2006-11-01)\n\nAudio\nID : 1\nFormat : MPEG Audio\nFormat version : Version 1\nFormat profile : Layer 3\nCodec ID : 55\nCodec ID/Hint : MP3\nDuration : 1h 32mn\nBit rate mode : Constant\nBit rate : 128 Kbps\nChannel(s) : 2 channels\nSampling rate : 44.1 KHz\nResolution : 16 bits\nStream size : 84.6 MiB (13%)\nAlignment : Split accross interleaves\nInterleave, duration : 40 ms (1.00 video frame)\nInterleave, preload duration : 500 ms\n\nStarring\nDenzel Washington\nChris Pine\nRosario Dawson\nEthan Suplee\nJessy Schram\n\nAfter panning across some idling diesel locomotives under the opening credits, the film begins with scenes at two rail yards in different regions of Pennsylvania run by the Allegheny and West Virginia Railroad (AWVR). In the Fuller yard in northern Pennsylvania, children arrive for a school field trip on rail safety. Meanwhile, in the southern Pennsylvania town of Stanton, Will Colson (Chris Pine) gets up for work, stopping to surreptitiously watch his wife put their son on the school bus. He calls her but she refuses to even answer.\n &lt;a href=&quot;\nhttp://www.imdb.com/title/tt0477080/&quot; rel=&quot;nofollow&quot; target=&quot;_NEW&quot;&gt;\nhttp://www.imdb.com/title/tt0477080/&lt;/a&gt;\n\nThanks to LU for original file\n\nscreens\n &lt;a href=&quot;\nhttp://img210.imageshack.us/img210/5066/unstopxvidviceavisnapsh.jpg&quot; rel=&quot;nofollow&quot; target=&quot;_NEW&quot;&gt;\nhttp://img210.imageshack.us/img210/5066/unstopxvidviceavisnapsh.jpg&lt;/a&gt; &lt;a href=&quot;\nhttp://img225.imageshack.us/img225/5066/unstopxvidviceavisnapsh.jpg&quot; rel=&quot;nofollow&quot; target=&quot;_NEW&quot;&gt;\nhttp://img225.imageshack.us/img225/5066/unstopxvidviceavisnapsh.jpg&lt;/a&gt; &lt;a href=&quot;\nhttp://img708.imageshack.us/img708/5066/unstopxvidviceavisnapsh.jpg&quot; rel=&quot;nofollow&quot; target=&quot;_NEW&quot;&gt;\nhttp://img708.imageshack.us/img708/5066/unstopxvidviceavisnapsh.jpg&lt;/a&gt; &lt;a href=&quot;\nhttp://img687.imageshack.us/img687/5066/unstopxvidviceavisnapsh.jpg&quot; rel=&quot;nofollow&quot; target=&quot;_NEW&quot;&gt;\nhttp://img687.imageshack.us/img687/5066/unstopxvidviceavisnapsh.jpg&lt;/a&gt;","torrent":{"xt":"urn:btih:035d029f62db95b461b1e23bd5025fcf3941751f","amp;dn":"Unstoppable.2010.CAM.XviD..vice","amp;tr":["udp%3A%2F%2Ftracker.openbittorrent.com%3A80","udp%3A%2F%2Fopen.demonii.com%3A1337","udp%3A%2F%2Ftracker.coppersurfer.tk%3A6969","udp%3A%2F%2Fexodus.desync.com%3A6969"],"infoHash":"035d029f62db95b461b1e23bd5025fcf3941751f","infoHashBuffer":{"type":"Buffer","data":[3,93,2,159,98,219,149,180,97,177,226,59,213,2,95,207,57,65,117,31]},"announce":[],"urlList":[]}}